<svg width="15" height="15" viewBox="0 0 15 15" fill="none" xmlns="http://www.w3.org/2000/svg">
<mask id="mask0_133_960" style="mask-type:luminance" maskUnits="userSpaceOnUse" x="0" y="0" width="15" height="15">
<path fill-rule="evenodd" clip-rule="evenodd" d="M14.3372 6.22727H7.66279V8.93182H11.5047C11.1465 10.65 9.64884 11.6364 7.66279 11.6364C5.3186 11.6364 3.43023 9.79091 3.43023 7.5C3.43023 5.20909 5.3186 3.36364 7.66279 3.36364C8.67209 3.36364 9.58372 3.71364 10.3 4.28636L12.3837 2.25C11.114 1.16818 9.48605 0.5 7.66279 0.5C3.6907 0.5 0.5 3.61818 0.5 7.5C0.5 11.3818 3.6907 14.5 7.66279 14.5C11.2442 14.5 14.5 11.9545 14.5 7.5C14.5 7.08636 14.4349 6.64091 14.3372 6.22727Z" fill="white"/>
</mask>
<g mask="url(#mask0_133_960)">
<path d="M-0.151367 11.6364V3.36363L5.38352 7.5L-0.151367 11.6364Z" fill="#FBBC05"/>
</g>
<mask id="mask1_133_960" style="mask-type:luminance" maskUnits="userSpaceOnUse" x="0" y="0" width="15" height="15">
<path fill-rule="evenodd" clip-rule="evenodd" d="M14.3372 6.22727H7.66279V8.93182H11.5047C11.1465 10.65 9.64884 11.6364 7.66279 11.6364C5.3186 11.6364 3.43023 9.79091 3.43023 7.5C3.43023 5.20909 5.3186 3.36364 7.66279 3.36364C8.67209 3.36364 9.58372 3.71364 10.3 4.28636L12.3837 2.25C11.114 1.16818 9.48605 0.5 7.66279 0.5C3.6907 0.5 0.5 3.61818 0.5 7.5C0.5 11.3818 3.6907 14.5 7.66279 14.5C11.2442 14.5 14.5 11.9545 14.5 7.5C14.5 7.08636 14.4349 6.64091 14.3372 6.22727Z" fill="white"/>
</mask>
<g mask="url(#mask1_133_960)">
<path d="M-0.151367 3.36363L5.38352 7.5L7.66259 5.55909L15.4765 4.31818V-0.136368H-0.151367V3.36363Z" fill="#EA4335"/>
</g>
<mask id="mask2_133_960" style="mask-type:luminance" maskUnits="userSpaceOnUse" x="0" y="0" width="15" height="15">
<path fill-rule="evenodd" clip-rule="evenodd" d="M14.3372 6.22727H7.66279V8.93182H11.5047C11.1465 10.65 9.64884 11.6364 7.66279 11.6364C5.3186 11.6364 3.43023 9.79091 3.43023 7.5C3.43023 5.20909 5.3186 3.36364 7.66279 3.36364C8.67209 3.36364 9.58372 3.71364 10.3 4.28636L12.3837 2.25C11.114 1.16818 9.48605 0.5 7.66279 0.5C3.6907 0.5 0.5 3.61818 0.5 7.5C0.5 11.3818 3.6907 14.5 7.66279 14.5C11.2442 14.5 14.5 11.9545 14.5 7.5C14.5 7.08636 14.4349 6.64091 14.3372 6.22727Z" fill="white"/>
</mask>
<g mask="url(#mask2_133_960)">
<path d="M-0.151367 11.6364L9.61607 4.31818L12.1882 4.63636L15.4765 -0.136368V15.1364H-0.151367V11.6364Z" fill="#34A853"/>
</g>
<mask id="mask3_133_960" style="mask-type:luminance" maskUnits="userSpaceOnUse" x="0" y="0" width="15" height="15">
<path fill-rule="evenodd" clip-rule="evenodd" d="M14.3372 6.22727H7.66279V8.93182H11.5047C11.1465 10.65 9.64884 11.6364 7.66279 11.6364C5.3186 11.6364 3.43023 9.79091 3.43023 7.5C3.43023 5.20909 5.3186 3.36364 7.66279 3.36364C8.67209 3.36364 9.58372 3.71364 10.3 4.28636L12.3837 2.25C11.114 1.16818 9.48605 0.5 7.66279 0.5C3.6907 0.5 0.5 3.61818 0.5 7.5C0.5 11.3818 3.6907 14.5 7.66279 14.5C11.2442 14.5 14.5 11.9545 14.5 7.5C14.5 7.08636 14.4349 6.64091 14.3372 6.22727Z" fill="white"/>
</mask>
<g mask="url(#mask3_133_960)">
<path d="M15.4764 15.1364L5.38338 7.5L4.08105 6.54545L15.4764 3.36363V15.1364Z" fill="#4285F4"/>
</g>
</svg>
