<svg width="17" height="17" viewBox="0 0 17 17" fill="none" xmlns="http://www.w3.org/2000/svg">
<path d="M14.8437 5.74999C14.8645 5.83333 14.875 5.96874 14.875 6.15624C14.875 7.65624 14.5104 9.10415 13.7812 10.5C13.0312 11.9791 11.9791 13.1562 10.625 14.0312C9.14581 15.0104 7.4479 15.5 5.53124 15.5C3.69791 15.5 2.02083 15.0104 0.5 14.0312C0.729166 14.0521 0.989582 14.0625 1.28125 14.0625C2.80208 14.0625 4.16666 13.5937 5.37499 12.6562C4.64582 12.6562 4.0052 12.4427 3.45312 12.0156C2.90104 11.5885 2.52083 11.0521 2.3125 10.4062C2.52083 10.4271 2.71874 10.4375 2.90624 10.4375C3.19791 10.4375 3.48958 10.4062 3.78124 10.3437C3.03124 10.1771 2.40625 9.79165 1.90625 9.18748C1.40625 8.58332 1.15625 7.89582 1.15625 7.12499V7.06249C1.61458 7.33332 2.10416 7.47915 2.62499 7.49999C2.1875 7.18749 1.83333 6.79166 1.5625 6.31249C1.29166 5.83333 1.15625 5.30728 1.15625 4.73437C1.15625 4.16145 1.3125 3.61458 1.625 3.09375C2.4375 4.11458 3.43228 4.92708 4.60936 5.53124C5.78645 6.13541 7.04165 6.46874 8.37498 6.53124C8.33331 6.28124 8.31248 6.03124 8.31248 5.78124C8.31248 5.19791 8.45831 4.65104 8.74998 4.14062C9.04165 3.63021 9.43748 3.22916 9.93748 2.9375C10.4375 2.64583 10.9791 2.5 11.5625 2.5C12.0416 2.5 12.4843 2.59375 12.8906 2.78125C13.2968 2.96875 13.6562 3.21875 13.9687 3.53125C14.7187 3.38541 15.4166 3.125 16.0625 2.75C15.8125 3.52083 15.3333 4.125 14.625 4.56249C15.25 4.47916 15.875 4.30208 16.5 4.03125C16.0416 4.69791 15.4895 5.27083 14.8437 5.74999Z" fill="#00A2F3"/>
</svg>
