<svg width="42" height="42" viewBox="0 0 42 42" fill="none" xmlns="http://www.w3.org/2000/svg">
<rect x="1" y="1" width="40" height="40" rx="20" stroke="#CFDBD5" stroke-opacity="0.6" stroke-linecap="square"/>
<path d="M27.75 17.4492V15.7617C27.75 14.918 27.082 14.25 26.2383 14.25H15.7617C14.918 14.25 14.25 14.918 14.25 15.7617V26.2383C14.25 27.082 14.918 27.75 15.7617 27.75H26.2383C27.082 27.75 27.75 27.082 27.75 26.2383V24.5508C28.207 24.2695 28.4883 23.8125 28.4883 23.25V18.75C28.4883 18.1875 28.207 17.7305 27.75 17.4492ZM27.0117 18.75V23.25H21.7383V18.75H27.0117ZM15.7617 26.2383V15.7617H26.2383V17.2383H21.7383C20.9297 17.2383 20.2617 17.9414 20.2617 18.75V23.25C20.2617 24.0586 20.9297 24.7617 21.7383 24.7617H26.2383V26.2383H15.7617ZM22.8633 21C22.8633 20.3672 23.3906 19.875 23.9883 19.875C24.6211 19.875 25.1133 20.3672 25.1133 21C25.1133 21.6328 24.6211 22.125 23.9883 22.125C23.3906 22.125 22.8633 21.6328 22.8633 21Z" fill="#030E17"/>
</svg>
