<svg width="22" height="22" viewBox="0 0 22 22" fill="none" xmlns="http://www.w3.org/2000/svg">
<g clip-path="url(#clip0_300_497)">
<path d="M11 2.75001C11.121 2.75001 11.241 2.75001 11.3602 2.75001C10.1826 3.84424 9.42567 5.31653 9.22098 6.91096C9.01629 8.50539 9.37678 10.1211 10.2398 11.4773C11.1028 12.8336 12.4138 13.8445 13.9448 14.3344C15.4759 14.8242 17.1302 14.7621 18.6202 14.1588C18.047 15.538 17.1103 16.7356 15.9098 17.6241C14.7093 18.5125 13.2902 19.0585 11.8038 19.2036C10.3174 19.3488 8.81945 19.0877 7.46978 18.4483C6.1201 17.8089 4.96932 16.8151 4.14017 15.5729C3.31102 14.3307 2.83462 12.8868 2.76177 11.3951C2.68893 9.90336 3.02238 8.41986 3.72655 7.10281C4.43073 5.78576 5.47921 4.68456 6.76016 3.91668C8.04111 3.1488 9.50649 2.74304 11 2.74268V2.75001Z" stroke="#94999D" stroke-width="1.5" stroke-linecap="round" stroke-linejoin="round"/>
<path d="M15.5833 3.66666C15.5833 4.15289 15.7765 4.6192 16.1203 4.96302C16.4641 5.30684 16.9304 5.49999 17.4167 5.49999C16.9304 5.49999 16.4641 5.69314 16.1203 6.03696C15.7765 6.38078 15.5833 6.84709 15.5833 7.33332C15.5833 6.84709 15.3902 6.38078 15.0464 6.03696C14.7025 5.69314 14.2362 5.49999 13.75 5.49999C14.2362 5.49999 14.7025 5.30684 15.0464 4.96302C15.3902 4.6192 15.5833 4.15289 15.5833 3.66666Z" stroke="#94999D" stroke-width="1.5" stroke-linecap="round" stroke-linejoin="round"/>
<path d="M17.416 10.0833H19.2493M18.3327 9.16666V11" stroke="#94999D" stroke-width="1.5" stroke-linecap="round" stroke-linejoin="round"/>
</g>
<defs>
<clipPath id="clip0_300_497">
<rect width="22" height="22" fill="white"/>
</clipPath>
</defs>
</svg>
