<svg id="Layer_1" data-name="Layer 1" xmlns="http://www.w3.org/2000/svg" viewBox="0 0 3000 3000"><defs><style>.cls-1{fill:#fff;}.cls-2{fill:#e9275b;}.cls-3{fill:#3eb98e;}</style></defs><circle class="cls-1" cx="1500" cy="1500" r="1500"/><path class="cls-2" d="M972.23,1395.59q0-17.11,9-27.29t26.87-10.18h526.13q83.88,0,157.19,31.35t127.87,85.12q54.55,53.75,85.93,125.82t31.35,153.53a364.65,364.65,0,0,1-15.06,105.47,394.94,394.94,0,0,1-105.89,172.66,418.1,418.1,0,0,1-81,60.68l209.3,394.2q5.7,11.41,14.68,26.87t8.94,26.88q0,13-8.54,20t-23.21,6.92H1656.35a40.62,40.62,0,0,1-24.83-8.13,36.92,36.92,0,0,1-14.25-22l-197.92-372.2H1287.42v367.31q0,35-37.46,35h-241.9q-16.29,0-26.06-8.55t-9.77-26.47Zm637.7,361.6a141.3,141.3,0,0,0-9-48.85,159.27,159.27,0,0,0-25.25-44.81,148.72,148.72,0,0,0-39.1-34.2,134.06,134.06,0,0,0-50.48-17.92q-22.83-1.61-42.77-2.85t-43.57-1.23H1287.42v298.91h149.86q14.65,0,26.06-.81t25.25-2.44q28.5-3.26,51.31-16.7a133.64,133.64,0,0,0,38.27-33.4,147.49,147.49,0,0,0,23.62-44.79A162.62,162.62,0,0,0,1609.93,1757.19Z" transform="translate(0 0)"/><path class="cls-3" d="M2030.87,575.07A637.5,637.5,0,0,0,1998.19,437a637.18,637.18,0,0,0-141.93,1.42C1573,472.86,1356.14,688.76,1307.81,955.53a398.12,398.12,0,0,1,68,259.45,403.1,403.1,0,0,1-12.78,71.11,637.8,637.8,0,0,0,114-3.59C1825.3,1240.09,2073.27,923.36,2030.87,575.07Z" transform="translate(0 0)"/><path class="cls-3" d="M1326.5,1231.07c.1-.63.2-1.26.29-1.89.84-6,1.57-12.11,2.11-18.26q.76-8.87,1.08-17.68c.07-2,0-3.91.08-5.88.08-3.89.17-7.79.12-11.66,0-2.32-.16-4.62-.23-6.93-.12-3.48-.21-7-.42-10.42-.15-2.46-.4-4.9-.6-7.35-.27-3.28-.53-6.56-.89-9.82-.28-2.52-.65-5-1-7.52-.42-3.15-.83-6.3-1.33-9.42-.41-2.54-.9-5-1.36-7.56-.56-3.06-1.12-6.13-1.76-9.16-.53-2.52-1.13-5-1.72-7.52-.7-3-1.4-6-2.18-8.92-.66-2.51-1.37-5-2.08-7.48-.83-2.9-1.68-5.8-2.58-8.68-.78-2.48-1.6-4.93-2.43-7.38-1-2.84-1.95-5.68-3-8.49-.9-2.42-1.82-4.84-2.77-7.24-1.09-2.78-2.21-5.54-3.38-8.29-1-2.38-2-4.74-3.08-7.1-.22-.47-.45-.94-.66-1.41h0c-1-2.23-2-4.46-3.11-6.68s-2.24-4.63-3.4-6.92q-2-4-4.15-7.9c-1.21-2.25-2.43-4.49-3.69-6.71-1.48-2.61-3-5.18-4.55-7.74-1.31-2.17-2.6-4.34-3.95-6.47-1.61-2.55-3.28-5.05-5-7.56-1.39-2.08-2.77-4.18-4.2-6.23-1.75-2.49-3.56-4.94-5.36-7.39-1.46-2-2.91-4-4.41-5.93-1.9-2.46-3.87-4.87-5.83-7.29-1.51-1.85-3-3.73-4.54-5.56-2.08-2.46-4.25-4.84-6.39-7.24-1.53-1.71-3-3.44-4.58-5.11-2.34-2.52-4.77-5-7.19-7.41-1.45-1.48-2.86-3-4.34-4.43-3-3-6.15-5.84-9.28-8.69-.94-.86-1.84-1.75-2.79-2.6q-6.16-5.49-12.6-10.71c-1.21-1-2.47-1.9-3.7-2.86-3.11-2.46-6.23-4.92-9.43-7.27-1.71-1.26-3.47-2.44-5.2-3.66-2.8-2-5.58-4-8.43-5.87-1.93-1.28-3.92-2.49-5.88-3.74-2.73-1.74-5.44-3.49-8.22-5.15-2.09-1.25-4.22-2.43-6.34-3.64-2.72-1.55-5.44-3.12-8.21-4.6-2.2-1.18-4.45-2.3-6.69-3.43-2.75-1.4-5.51-2.81-8.31-4.14-2.3-1.09-4.63-2.13-7-3.17-2.8-1.26-5.6-2.51-8.45-3.7-2.39-1-4.8-1.94-7.22-2.89-2.85-1.11-5.71-2.21-8.59-3.26-2.46-.89-5-1.73-7.44-2.57-2.91-1-5.82-1.93-8.76-2.84-2.53-.78-5.08-1.52-7.64-2.24-3-.84-5.93-1.64-8.93-2.4q-3.88-1-7.8-1.89c-3-.7-6.07-1.35-9.12-2-2.64-.54-5.28-1-7.94-1.53q-5.33-.95-10.7-1.75c-1.67-.25-3.33-.51-5-.74-5.43-.72-10.9-1.36-16.41-1.83a353.45,353.45,0,0,0-78.74,2,353.56,353.56,0,0,0-15.45,77.23q-.76,8.88-1.08,17.69c-.08,2,0,3.91-.09,5.87-.08,3.9-.17,7.8-.12,11.67,0,2.31.16,4.59.24,6.89.11,3.5.2,7,.42,10.47.15,2.45.39,4.87.59,7.31.28,3.29.53,6.58.9,9.85.28,2.51.64,5,1,7.51.42,3.15.84,6.3,1.34,9.43.41,2.54.89,5.05,1.35,7.56.56,3.06,1.12,6.12,1.77,9.16.53,2.52,1.12,5,1.71,7.52.7,3,1.41,6,2.18,8.92.66,2.51,1.37,5,2.08,7.47.83,2.91,1.68,5.81,2.59,8.69.77,2.47,1.59,4.93,2.42,7.37,1,2.85,2,5.68,3,8.5q1.33,3.63,2.76,7.23,1.64,4.19,3.39,8.32,1.5,3.54,3.07,7c1.22,2.73,2.49,5.44,3.78,8.13,1.11,2.31,2.23,4.62,3.39,6.9q2,4,4.16,7.91c1.21,2.25,2.42,4.49,3.68,6.71,1.48,2.6,3,5.17,4.55,7.73,1.31,2.17,2.61,4.34,4,6.49,1.61,2.54,3.27,5.05,5,7.55,1.38,2.08,2.76,4.17,4.19,6.22,1.75,2.5,3.57,5,5.38,7.41,1.46,2,2.89,4,4.39,5.92,1.9,2.46,3.87,4.86,5.82,7.27,1.52,1.86,3,3.75,4.56,5.58,2.08,2.45,4.24,4.84,6.38,7.23,1.53,1.71,3,3.45,4.58,5.12,2.36,2.54,4.81,5,7.25,7.46,1.43,1.45,2.82,3,4.27,4.37,3.06,3,6.21,5.89,9.37,8.77.92.83,1.79,1.7,2.71,2.52q6.18,5.51,12.62,10.73c1.13.92,2.32,1.78,3.47,2.69,3.19,2.52,6.38,5,9.66,7.44,1.67,1.23,3.4,2.38,5.09,3.58,2.83,2,5.64,4,8.53,5.94,1.92,1.27,3.89,2.47,5.83,3.71,2.74,1.75,5.48,3.51,8.27,5.18,2.07,1.24,4.18,2.41,6.28,3.61,2.75,1.56,5.49,3.14,8.28,4.64,2.19,1.17,4.41,2.27,6.63,3.4,2.77,1.41,5.55,2.82,8.36,4.16,2.29,1.09,4.61,2.12,6.93,3.16,2.81,1.26,5.63,2.52,8.48,3.71,2.38,1,4.79,1.93,7.2,2.88,2.85,1.12,5.72,2.22,8.62,3.27,2.45.89,4.93,1.73,7.41,2.56,2.91,1,5.84,1.94,8.79,2.85,2.52.78,5.06,1.51,7.6,2.23,3,.84,6,1.65,9,2.42q3.87,1,7.77,1.88c3,.7,6.09,1.35,9.16,2,2.62.53,5.25,1,7.9,1.51q5.34,1,10.74,1.76c1.66.25,3.31.51,5,.73,5.44.73,10.9,1.36,16.42,1.84a354.22,354.22,0,0,0,59.42.16q9.74-.8,19.32-2.11,3-9.23,5.41-18.68A352.62,352.62,0,0,0,1326.5,1231.07Z" transform="translate(0 0)"/></svg>